<mxfile host="app.diagrams.net" agent="Mozilla/5.0 (Windows NT 10.0; Win64; x64) AppleWebKit/537.36 (KHTML, like Gecko) Chrome/134.0.0.0 Safari/537.36" border="50" scale="3" compressed="false" locked="false" version="26.1.0">
  <diagram name="Blank" id="YmL12bMKpDGza6XwsDPr">
    <mxGraphModel dx="5428" dy="2612" grid="0" gridSize="10" guides="1" tooltips="1" connect="1" arrows="1" fold="1" page="0" pageScale="1" pageWidth="827" pageHeight="1169" background="none" math="1" shadow="0">
      <root>
        <mxCell id="X5NqExCQtvZxIxQ7pmgY-0" />
        <mxCell id="1" parent="X5NqExCQtvZxIxQ7pmgY-0" />
        <mxCell id="OIwE_63wMMSFKBlg6qpk-122" value="aa" style="rounded=0;whiteSpace=wrap;html=1;" vertex="1" parent="1">
          <mxGeometry x="-248" y="-385" width="414" height="289" as="geometry" />
        </mxCell>
        <mxCell id="OIwE_63wMMSFKBlg6qpk-95" style="edgeStyle=orthogonalEdgeStyle;rounded=0;orthogonalLoop=1;jettySize=auto;html=1;exitX=0.25;exitY=1;exitDx=0;exitDy=0;" edge="1" parent="1">
          <mxGeometry relative="1" as="geometry">
            <mxPoint x="80" y="492" as="targetPoint" />
            <mxPoint x="80.25" y="303" as="sourcePoint" />
          </mxGeometry>
        </mxCell>
        <mxCell id="OIwE_63wMMSFKBlg6qpk-117" style="edgeStyle=orthogonalEdgeStyle;rounded=0;orthogonalLoop=1;jettySize=auto;html=1;entryX=0.5;entryY=0;entryDx=0;entryDy=0;" edge="1" parent="1" source="OIwE_63wMMSFKBlg6qpk-1" target="OIwE_63wMMSFKBlg6qpk-10">
          <mxGeometry relative="1" as="geometry" />
        </mxCell>
        <mxCell id="OIwE_63wMMSFKBlg6qpk-1" value="" style="rounded=0;whiteSpace=wrap;html=1;" vertex="1" parent="1">
          <mxGeometry x="1" y="49" width="249" height="252" as="geometry" />
        </mxCell>
        <mxCell id="OIwE_63wMMSFKBlg6qpk-119" style="edgeStyle=orthogonalEdgeStyle;rounded=0;orthogonalLoop=1;jettySize=auto;html=1;" edge="1" parent="1" source="OIwE_63wMMSFKBlg6qpk-2">
          <mxGeometry relative="1" as="geometry">
            <mxPoint x="663" y="188" as="targetPoint" />
          </mxGeometry>
        </mxCell>
        <mxCell id="OIwE_63wMMSFKBlg6qpk-120" style="edgeStyle=orthogonalEdgeStyle;rounded=0;orthogonalLoop=1;jettySize=auto;html=1;exitX=1;exitY=0.5;exitDx=0;exitDy=0;" edge="1" parent="1" source="OIwE_63wMMSFKBlg6qpk-2">
          <mxGeometry relative="1" as="geometry">
            <mxPoint x="916" y="190" as="targetPoint" />
          </mxGeometry>
        </mxCell>
        <mxCell id="OIwE_63wMMSFKBlg6qpk-121" style="edgeStyle=orthogonalEdgeStyle;rounded=0;orthogonalLoop=1;jettySize=auto;html=1;" edge="1" parent="1" source="OIwE_63wMMSFKBlg6qpk-2">
          <mxGeometry relative="1" as="geometry">
            <mxPoint x="1202" y="196" as="targetPoint" />
          </mxGeometry>
        </mxCell>
        <mxCell id="OIwE_63wMMSFKBlg6qpk-2" value="Yarn resource manager" style="rounded=0;whiteSpace=wrap;html=1;" vertex="1" parent="1">
          <mxGeometry x="-19.5" y="495.5" width="287" height="163" as="geometry" />
        </mxCell>
        <mxCell id="OIwE_63wMMSFKBlg6qpk-11" style="edgeStyle=orthogonalEdgeStyle;rounded=0;orthogonalLoop=1;jettySize=auto;html=1;exitX=1;exitY=0.5;exitDx=0;exitDy=0;" edge="1" parent="1" source="OIwE_63wMMSFKBlg6qpk-10">
          <mxGeometry relative="1" as="geometry">
            <mxPoint x="-21" y="577" as="targetPoint" />
          </mxGeometry>
        </mxCell>
        <mxCell id="OIwE_63wMMSFKBlg6qpk-10" value="client" style="whiteSpace=wrap;html=1;aspect=fixed;" vertex="1" parent="1">
          <mxGeometry x="-388" y="511" width="132" height="132" as="geometry" />
        </mxCell>
        <mxCell id="OIwE_63wMMSFKBlg6qpk-24" value="application master" style="text;strokeColor=none;align=center;fillColor=none;html=1;verticalAlign=middle;whiteSpace=wrap;rounded=0;" vertex="1" parent="1">
          <mxGeometry x="68" y="230" width="115" height="41" as="geometry" />
        </mxCell>
        <mxCell id="OIwE_63wMMSFKBlg6qpk-25" value="hello" style="rounded=0;whiteSpace=wrap;html=1;" vertex="1" parent="1">
          <mxGeometry x="-193" y="878" width="120" height="60" as="geometry" />
        </mxCell>
        <mxCell id="OIwE_63wMMSFKBlg6qpk-26" value="world" style="rounded=0;whiteSpace=wrap;html=1;" vertex="1" parent="1">
          <mxGeometry x="-193" y="1341" width="120" height="60" as="geometry" />
        </mxCell>
        <mxCell id="OIwE_63wMMSFKBlg6qpk-69" style="edgeStyle=orthogonalEdgeStyle;rounded=0;orthogonalLoop=1;jettySize=auto;html=1;entryX=0;entryY=0.5;entryDx=0;entryDy=0;" edge="1" parent="1" source="OIwE_63wMMSFKBlg6qpk-27" target="OIwE_63wMMSFKBlg6qpk-53">
          <mxGeometry relative="1" as="geometry" />
        </mxCell>
        <mxCell id="OIwE_63wMMSFKBlg6qpk-27" value="h" style="rounded=0;whiteSpace=wrap;html=1;" vertex="1" parent="1">
          <mxGeometry x="38" y="707" width="120" height="60" as="geometry" />
        </mxCell>
        <mxCell id="OIwE_63wMMSFKBlg6qpk-70" style="edgeStyle=orthogonalEdgeStyle;rounded=0;orthogonalLoop=1;jettySize=auto;html=1;entryX=0;entryY=0.5;entryDx=0;entryDy=0;" edge="1" parent="1" source="OIwE_63wMMSFKBlg6qpk-28" target="OIwE_63wMMSFKBlg6qpk-54">
          <mxGeometry relative="1" as="geometry" />
        </mxCell>
        <mxCell id="OIwE_63wMMSFKBlg6qpk-28" value="e" style="rounded=0;whiteSpace=wrap;html=1;" vertex="1" parent="1">
          <mxGeometry x="36" y="786" width="120" height="60" as="geometry" />
        </mxCell>
        <mxCell id="OIwE_63wMMSFKBlg6qpk-68" style="edgeStyle=orthogonalEdgeStyle;rounded=0;orthogonalLoop=1;jettySize=auto;html=1;exitX=1;exitY=0.5;exitDx=0;exitDy=0;entryX=0;entryY=0.5;entryDx=0;entryDy=0;" edge="1" parent="1" source="OIwE_63wMMSFKBlg6qpk-29" target="OIwE_63wMMSFKBlg6qpk-48">
          <mxGeometry relative="1" as="geometry" />
        </mxCell>
        <mxCell id="OIwE_63wMMSFKBlg6qpk-29" value="l" style="rounded=0;whiteSpace=wrap;html=1;" vertex="1" parent="1">
          <mxGeometry x="36" y="875" width="120" height="60" as="geometry" />
        </mxCell>
        <mxCell id="OIwE_63wMMSFKBlg6qpk-71" style="edgeStyle=orthogonalEdgeStyle;rounded=0;orthogonalLoop=1;jettySize=auto;html=1;exitX=1;exitY=0.5;exitDx=0;exitDy=0;entryX=0;entryY=0.5;entryDx=0;entryDy=0;" edge="1" parent="1" source="OIwE_63wMMSFKBlg6qpk-30" target="OIwE_63wMMSFKBlg6qpk-58">
          <mxGeometry relative="1" as="geometry" />
        </mxCell>
        <mxCell id="OIwE_63wMMSFKBlg6qpk-30" value="o" style="rounded=0;whiteSpace=wrap;html=1;" vertex="1" parent="1">
          <mxGeometry x="36" y="1041" width="120" height="60" as="geometry" />
        </mxCell>
        <mxCell id="OIwE_63wMMSFKBlg6qpk-67" style="edgeStyle=orthogonalEdgeStyle;rounded=0;orthogonalLoop=1;jettySize=auto;html=1;entryX=0;entryY=0.5;entryDx=0;entryDy=0;" edge="1" parent="1" source="OIwE_63wMMSFKBlg6qpk-31" target="OIwE_63wMMSFKBlg6qpk-55">
          <mxGeometry relative="1" as="geometry" />
        </mxCell>
        <mxCell id="OIwE_63wMMSFKBlg6qpk-31" value="l" style="rounded=0;whiteSpace=wrap;html=1;" vertex="1" parent="1">
          <mxGeometry x="38" y="958" width="120" height="60" as="geometry" />
        </mxCell>
        <mxCell id="OIwE_63wMMSFKBlg6qpk-76" style="edgeStyle=orthogonalEdgeStyle;rounded=0;orthogonalLoop=1;jettySize=auto;html=1;entryX=0;entryY=0.5;entryDx=0;entryDy=0;" edge="1" parent="1" source="OIwE_63wMMSFKBlg6qpk-32" target="OIwE_63wMMSFKBlg6qpk-62">
          <mxGeometry relative="1" as="geometry" />
        </mxCell>
        <mxCell id="OIwE_63wMMSFKBlg6qpk-32" value="w" style="rounded=0;whiteSpace=wrap;html=1;" vertex="1" parent="1">
          <mxGeometry x="33" y="1150" width="120" height="60" as="geometry" />
        </mxCell>
        <mxCell id="OIwE_63wMMSFKBlg6qpk-73" style="edgeStyle=orthogonalEdgeStyle;rounded=0;orthogonalLoop=1;jettySize=auto;html=1;entryX=0;entryY=0.5;entryDx=0;entryDy=0;" edge="1" parent="1" source="OIwE_63wMMSFKBlg6qpk-33" target="OIwE_63wMMSFKBlg6qpk-58">
          <mxGeometry relative="1" as="geometry" />
        </mxCell>
        <mxCell id="OIwE_63wMMSFKBlg6qpk-33" value="o" style="rounded=0;whiteSpace=wrap;html=1;" vertex="1" parent="1">
          <mxGeometry x="33" y="1241" width="120" height="60" as="geometry" />
        </mxCell>
        <mxCell id="OIwE_63wMMSFKBlg6qpk-74" style="edgeStyle=orthogonalEdgeStyle;rounded=0;orthogonalLoop=1;jettySize=auto;html=1;" edge="1" parent="1" source="OIwE_63wMMSFKBlg6qpk-34" target="OIwE_63wMMSFKBlg6qpk-60">
          <mxGeometry relative="1" as="geometry" />
        </mxCell>
        <mxCell id="OIwE_63wMMSFKBlg6qpk-34" value="r" style="rounded=0;whiteSpace=wrap;html=1;" vertex="1" parent="1">
          <mxGeometry x="31" y="1336" width="120" height="60" as="geometry" />
        </mxCell>
        <mxCell id="OIwE_63wMMSFKBlg6qpk-66" style="edgeStyle=orthogonalEdgeStyle;rounded=0;orthogonalLoop=1;jettySize=auto;html=1;entryX=0;entryY=0.5;entryDx=0;entryDy=0;" edge="1" parent="1" source="OIwE_63wMMSFKBlg6qpk-35" target="OIwE_63wMMSFKBlg6qpk-56">
          <mxGeometry relative="1" as="geometry" />
        </mxCell>
        <mxCell id="OIwE_63wMMSFKBlg6qpk-35" value="l" style="rounded=0;whiteSpace=wrap;html=1;" vertex="1" parent="1">
          <mxGeometry x="28" y="1438" width="120" height="60" as="geometry" />
        </mxCell>
        <mxCell id="OIwE_63wMMSFKBlg6qpk-75" style="edgeStyle=orthogonalEdgeStyle;rounded=0;orthogonalLoop=1;jettySize=auto;html=1;exitX=1;exitY=0.5;exitDx=0;exitDy=0;entryX=0;entryY=0.5;entryDx=0;entryDy=0;" edge="1" parent="1" source="OIwE_63wMMSFKBlg6qpk-36" target="OIwE_63wMMSFKBlg6qpk-64">
          <mxGeometry relative="1" as="geometry" />
        </mxCell>
        <mxCell id="OIwE_63wMMSFKBlg6qpk-36" value="d" style="rounded=0;whiteSpace=wrap;html=1;" vertex="1" parent="1">
          <mxGeometry x="31" y="1540" width="120" height="60" as="geometry" />
        </mxCell>
        <mxCell id="OIwE_63wMMSFKBlg6qpk-46" value="h:1" style="rounded=0;whiteSpace=wrap;html=1;" vertex="1" parent="1">
          <mxGeometry x="487" y="875" width="120" height="60" as="geometry" />
        </mxCell>
        <mxCell id="OIwE_63wMMSFKBlg6qpk-47" value="e:1" style="rounded=0;whiteSpace=wrap;html=1;" vertex="1" parent="1">
          <mxGeometry x="489" y="987" width="120" height="60" as="geometry" />
        </mxCell>
        <mxCell id="OIwE_63wMMSFKBlg6qpk-48" value="l:1" style="rounded=0;whiteSpace=wrap;html=1;" vertex="1" parent="1">
          <mxGeometry x="282" y="875" width="120" height="60" as="geometry" />
        </mxCell>
        <mxCell id="OIwE_63wMMSFKBlg6qpk-49" value="0:2" style="rounded=0;whiteSpace=wrap;html=1;" vertex="1" parent="1">
          <mxGeometry x="483" y="1224" width="120" height="60" as="geometry" />
        </mxCell>
        <mxCell id="OIwE_63wMMSFKBlg6qpk-50" value="r:1" style="rounded=0;whiteSpace=wrap;html=1;" vertex="1" parent="1">
          <mxGeometry x="489" y="1344" width="120" height="60" as="geometry" />
        </mxCell>
        <mxCell id="OIwE_63wMMSFKBlg6qpk-51" value="map" style="text;strokeColor=none;align=center;fillColor=none;html=1;verticalAlign=middle;whiteSpace=wrap;rounded=0;" vertex="1" parent="1">
          <mxGeometry x="58" y="1686" width="60" height="30" as="geometry" />
        </mxCell>
        <mxCell id="OIwE_63wMMSFKBlg6qpk-52" value="reduce" style="text;strokeColor=none;align=center;fillColor=none;html=1;verticalAlign=middle;whiteSpace=wrap;rounded=0;" vertex="1" parent="1">
          <mxGeometry x="519" y="1686" width="60" height="30" as="geometry" />
        </mxCell>
        <mxCell id="OIwE_63wMMSFKBlg6qpk-53" value="h:1" style="rounded=0;whiteSpace=wrap;html=1;" vertex="1" parent="1">
          <mxGeometry x="282" y="704" width="120" height="60" as="geometry" />
        </mxCell>
        <mxCell id="OIwE_63wMMSFKBlg6qpk-54" value="e:1" style="rounded=0;whiteSpace=wrap;html=1;" vertex="1" parent="1">
          <mxGeometry x="280" y="789" width="120" height="60" as="geometry" />
        </mxCell>
        <mxCell id="OIwE_63wMMSFKBlg6qpk-55" value="l:1" style="rounded=0;whiteSpace=wrap;html=1;" vertex="1" parent="1">
          <mxGeometry x="280" y="961" width="120" height="60" as="geometry" />
        </mxCell>
        <mxCell id="OIwE_63wMMSFKBlg6qpk-56" value="l:1" style="rounded=0;whiteSpace=wrap;html=1;" vertex="1" parent="1">
          <mxGeometry x="282" y="1061" width="120" height="60" as="geometry" />
        </mxCell>
        <mxCell id="OIwE_63wMMSFKBlg6qpk-57" value="l:3" style="rounded=0;whiteSpace=wrap;html=1;" vertex="1" parent="1">
          <mxGeometry x="487" y="1090" width="120" height="60" as="geometry" />
        </mxCell>
        <mxCell id="OIwE_63wMMSFKBlg6qpk-58" value="0:1" style="rounded=0;whiteSpace=wrap;html=1;" vertex="1" parent="1">
          <mxGeometry x="282" y="1153" width="120" height="60" as="geometry" />
        </mxCell>
        <mxCell id="OIwE_63wMMSFKBlg6qpk-59" value="0:1" style="rounded=0;whiteSpace=wrap;html=1;" vertex="1" parent="1">
          <mxGeometry x="282" y="1245" width="120" height="60" as="geometry" />
        </mxCell>
        <mxCell id="OIwE_63wMMSFKBlg6qpk-60" value="r:1" style="rounded=0;whiteSpace=wrap;html=1;" vertex="1" parent="1">
          <mxGeometry x="282" y="1336" width="120" height="60" as="geometry" />
        </mxCell>
        <mxCell id="OIwE_63wMMSFKBlg6qpk-61" value="d:1" style="rounded=0;whiteSpace=wrap;html=1;" vertex="1" parent="1">
          <mxGeometry x="487" y="1443" width="120" height="60" as="geometry" />
        </mxCell>
        <mxCell id="OIwE_63wMMSFKBlg6qpk-62" value="w:1" style="rounded=0;whiteSpace=wrap;html=1;" vertex="1" parent="1">
          <mxGeometry x="280" y="1527" width="120" height="60" as="geometry" />
        </mxCell>
        <mxCell id="OIwE_63wMMSFKBlg6qpk-64" value="d:1" style="rounded=0;whiteSpace=wrap;html=1;" vertex="1" parent="1">
          <mxGeometry x="282" y="1430" width="120" height="60" as="geometry" />
        </mxCell>
        <mxCell id="OIwE_63wMMSFKBlg6qpk-65" value="w:1" style="rounded=0;whiteSpace=wrap;html=1;" vertex="1" parent="1">
          <mxGeometry x="487" y="1530" width="120" height="60" as="geometry" />
        </mxCell>
        <mxCell id="OIwE_63wMMSFKBlg6qpk-77" value="shuffle" style="text;strokeColor=none;align=center;fillColor=none;html=1;verticalAlign=middle;whiteSpace=wrap;rounded=0;" vertex="1" parent="1">
          <mxGeometry x="316" y="1672" width="60" height="30" as="geometry" />
        </mxCell>
        <mxCell id="OIwE_63wMMSFKBlg6qpk-78" value="hello world" style="whiteSpace=wrap;html=1;aspect=fixed;" vertex="1" parent="1">
          <mxGeometry x="-455" y="1064" width="100" height="100" as="geometry" />
        </mxCell>
        <mxCell id="OIwE_63wMMSFKBlg6qpk-79" value="split" style="text;strokeColor=none;align=center;fillColor=none;html=1;verticalAlign=middle;whiteSpace=wrap;rounded=0;" vertex="1" parent="1">
          <mxGeometry x="-173" y="1691" width="60" height="30" as="geometry" />
        </mxCell>
        <mxCell id="OIwE_63wMMSFKBlg6qpk-81" value="" style="rounded=0;whiteSpace=wrap;html=1;" vertex="1" parent="1">
          <mxGeometry x="23" y="68" width="202" height="146" as="geometry" />
        </mxCell>
        <mxCell id="OIwE_63wMMSFKBlg6qpk-82" value="spark context" style="rounded=0;whiteSpace=wrap;html=1;" vertex="1" parent="1">
          <mxGeometry x="66" y="125" width="120" height="60" as="geometry" />
        </mxCell>
        <mxCell id="OIwE_63wMMSFKBlg6qpk-83" value="Driver" style="text;strokeColor=none;align=center;fillColor=none;html=1;verticalAlign=middle;whiteSpace=wrap;rounded=0;" vertex="1" parent="1">
          <mxGeometry x="98" y="81" width="60" height="30" as="geometry" />
        </mxCell>
        <mxCell id="OIwE_63wMMSFKBlg6qpk-89" value="Executor" style="text;strokeColor=none;align=center;fillColor=none;html=1;verticalAlign=middle;whiteSpace=wrap;rounded=0;" vertex="1" parent="1">
          <mxGeometry x="796" y="-21" width="216" height="64" as="geometry" />
        </mxCell>
        <mxCell id="OIwE_63wMMSFKBlg6qpk-90" value="HeartbeatReceiver" style="rounded=0;whiteSpace=wrap;html=1;" vertex="1" parent="1">
          <mxGeometry x="-40" y="-344" width="120" height="60" as="geometry" />
        </mxCell>
        <mxCell id="OIwE_63wMMSFKBlg6qpk-91" value="DAGScheduler" style="rounded=0;whiteSpace=wrap;html=1;" vertex="1" parent="1">
          <mxGeometry x="-222" y="-344" width="120" height="60" as="geometry" />
        </mxCell>
        <mxCell id="OIwE_63wMMSFKBlg6qpk-92" value="TaskScheduler" style="rounded=0;whiteSpace=wrap;html=1;" vertex="1" parent="1">
          <mxGeometry x="-126" y="-250" width="120" height="60" as="geometry" />
        </mxCell>
        <mxCell id="OIwE_63wMMSFKBlg6qpk-94" style="edgeStyle=orthogonalEdgeStyle;rounded=0;orthogonalLoop=1;jettySize=auto;html=1;entryX=0.116;entryY=1.012;entryDx=0;entryDy=0;entryPerimeter=0;" edge="1" parent="1" target="OIwE_63wMMSFKBlg6qpk-1">
          <mxGeometry relative="1" as="geometry">
            <mxPoint x="30" y="491" as="sourcePoint" />
          </mxGeometry>
        </mxCell>
        <mxCell id="OIwE_63wMMSFKBlg6qpk-96" style="edgeStyle=orthogonalEdgeStyle;rounded=0;orthogonalLoop=1;jettySize=auto;html=1;exitX=0.25;exitY=1;exitDx=0;exitDy=0;" edge="1" parent="1">
          <mxGeometry relative="1" as="geometry">
            <mxPoint x="127.5" y="495.5" as="targetPoint" />
            <mxPoint x="127.75" y="306.5" as="sourcePoint" />
          </mxGeometry>
        </mxCell>
        <mxCell id="OIwE_63wMMSFKBlg6qpk-97" style="edgeStyle=orthogonalEdgeStyle;rounded=0;orthogonalLoop=1;jettySize=auto;html=1;entryX=0.116;entryY=1.012;entryDx=0;entryDy=0;entryPerimeter=0;" edge="1" parent="1">
          <mxGeometry relative="1" as="geometry">
            <mxPoint x="176" y="491" as="sourcePoint" />
            <mxPoint x="176" y="306" as="targetPoint" />
          </mxGeometry>
        </mxCell>
        <mxCell id="OIwE_63wMMSFKBlg6qpk-101" value="" style="rounded=0;whiteSpace=wrap;html=1;" vertex="1" parent="1">
          <mxGeometry x="569" y="61" width="186" height="124" as="geometry" />
        </mxCell>
        <mxCell id="OIwE_63wMMSFKBlg6qpk-102" value="" style="rounded=0;whiteSpace=wrap;html=1;" vertex="1" parent="1">
          <mxGeometry x="819" y="58" width="186" height="124" as="geometry" />
        </mxCell>
        <mxCell id="OIwE_63wMMSFKBlg6qpk-103" value="" style="rounded=0;whiteSpace=wrap;html=1;" vertex="1" parent="1">
          <mxGeometry x="1093" y="61" width="186" height="124" as="geometry" />
        </mxCell>
        <mxCell id="OIwE_63wMMSFKBlg6qpk-108" style="edgeStyle=orthogonalEdgeStyle;rounded=0;orthogonalLoop=1;jettySize=auto;html=1;entryX=0.005;entryY=0.105;entryDx=0;entryDy=0;entryPerimeter=0;" edge="1" parent="1" target="OIwE_63wMMSFKBlg6qpk-101">
          <mxGeometry relative="1" as="geometry">
            <mxPoint x="250" y="73.04" as="sourcePoint" />
            <mxPoint x="556" y="119" as="targetPoint" />
          </mxGeometry>
        </mxCell>
        <mxCell id="OIwE_63wMMSFKBlg6qpk-109" value="" style="rounded=0;whiteSpace=wrap;html=1;" vertex="1" parent="1">
          <mxGeometry x="600" y="76" width="120" height="60" as="geometry" />
        </mxCell>
        <mxCell id="OIwE_63wMMSFKBlg6qpk-110" value="" style="rounded=0;whiteSpace=wrap;html=1;" vertex="1" parent="1">
          <mxGeometry x="614" y="93" width="120" height="60" as="geometry" />
        </mxCell>
        <mxCell id="OIwE_63wMMSFKBlg6qpk-111" value="" style="rounded=0;whiteSpace=wrap;html=1;" vertex="1" parent="1">
          <mxGeometry x="625" y="111" width="120" height="60" as="geometry" />
        </mxCell>
        <mxCell id="OIwE_63wMMSFKBlg6qpk-112" value="Task" style="text;strokeColor=none;align=center;fillColor=none;html=1;verticalAlign=middle;whiteSpace=wrap;rounded=0;" vertex="1" parent="1">
          <mxGeometry x="660" y="129" width="60" height="30" as="geometry" />
        </mxCell>
        <mxCell id="OIwE_63wMMSFKBlg6qpk-113" value="CPU" style="rounded=0;whiteSpace=wrap;html=1;" vertex="1" parent="1">
          <mxGeometry x="837" y="81" width="56" height="38" as="geometry" />
        </mxCell>
        <mxCell id="OIwE_63wMMSFKBlg6qpk-114" value="Memory" style="rounded=0;whiteSpace=wrap;html=1;" vertex="1" parent="1">
          <mxGeometry x="928" y="83" width="56" height="38" as="geometry" />
        </mxCell>
        <mxCell id="OIwE_63wMMSFKBlg6qpk-115" value="Disk" style="rounded=0;whiteSpace=wrap;html=1;" vertex="1" parent="1">
          <mxGeometry x="884" y="136" width="56" height="38" as="geometry" />
        </mxCell>
        <mxCell id="OIwE_63wMMSFKBlg6qpk-116" style="edgeStyle=orthogonalEdgeStyle;rounded=0;orthogonalLoop=1;jettySize=auto;html=1;entryX=1.004;entryY=0.29;entryDx=0;entryDy=0;entryPerimeter=0;" edge="1" parent="1" source="OIwE_63wMMSFKBlg6qpk-101" target="OIwE_63wMMSFKBlg6qpk-1">
          <mxGeometry relative="1" as="geometry" />
        </mxCell>
        <mxCell id="OIwE_63wMMSFKBlg6qpk-118" style="edgeStyle=orthogonalEdgeStyle;rounded=0;orthogonalLoop=1;jettySize=auto;html=1;entryX=0.116;entryY=1.012;entryDx=0;entryDy=0;entryPerimeter=0;" edge="1" parent="1">
          <mxGeometry relative="1" as="geometry">
            <mxPoint x="218" y="495.5" as="sourcePoint" />
            <mxPoint x="218" y="310.5" as="targetPoint" />
          </mxGeometry>
        </mxCell>
        <mxCell id="OIwE_63wMMSFKBlg6qpk-123" value="Spark context" style="text;strokeColor=none;align=center;fillColor=none;html=1;verticalAlign=middle;whiteSpace=wrap;rounded=0;" vertex="1" parent="1">
          <mxGeometry x="-89" y="-164" width="140" height="35" as="geometry" />
        </mxCell>
        <mxCell id="OIwE_63wMMSFKBlg6qpk-126" value="" style="rounded=0;whiteSpace=wrap;html=1;" vertex="1" parent="1">
          <mxGeometry x="1935" y="119" width="408" height="633" as="geometry" />
        </mxCell>
        <mxCell id="OIwE_63wMMSFKBlg6qpk-127" value="Driver" style="rounded=0;whiteSpace=wrap;html=1;" vertex="1" parent="1">
          <mxGeometry x="2005" y="159" width="272" height="113" as="geometry" />
        </mxCell>
        <mxCell id="OIwE_63wMMSFKBlg6qpk-152" style="edgeStyle=orthogonalEdgeStyle;rounded=0;orthogonalLoop=1;jettySize=auto;html=1;entryX=0;entryY=0.5;entryDx=0;entryDy=0;" edge="1" parent="1" source="OIwE_63wMMSFKBlg6qpk-128" target="OIwE_63wMMSFKBlg6qpk-132">
          <mxGeometry relative="1" as="geometry" />
        </mxCell>
        <mxCell id="OIwE_63wMMSFKBlg6qpk-128" value="" style="rounded=0;whiteSpace=wrap;html=1;" vertex="1" parent="1">
          <mxGeometry x="2023" y="343" width="270" height="321" as="geometry" />
        </mxCell>
        <mxCell id="OIwE_63wMMSFKBlg6qpk-129" value="Spark context" style="text;strokeColor=none;align=center;fillColor=none;html=1;verticalAlign=middle;whiteSpace=wrap;rounded=0;" vertex="1" parent="1">
          <mxGeometry x="2066" y="369" width="180" height="62" as="geometry" />
        </mxCell>
        <mxCell id="OIwE_63wMMSFKBlg6qpk-130" value="DAG Scheduler" style="rounded=0;whiteSpace=wrap;html=1;" vertex="1" parent="1">
          <mxGeometry x="2057" y="446" width="212" height="66" as="geometry" />
        </mxCell>
        <mxCell id="OIwE_63wMMSFKBlg6qpk-131" value="Task Scheduler" style="rounded=0;whiteSpace=wrap;html=1;" vertex="1" parent="1">
          <mxGeometry x="2059" y="556" width="210" height="82" as="geometry" />
        </mxCell>
        <mxCell id="OIwE_63wMMSFKBlg6qpk-132" value="Master" style="rounded=0;whiteSpace=wrap;html=1;" vertex="1" parent="1">
          <mxGeometry x="2506" y="369" width="221" height="87" as="geometry" />
        </mxCell>
        <mxCell id="OIwE_63wMMSFKBlg6qpk-133" value="" style="rounded=0;whiteSpace=wrap;html=1;" vertex="1" parent="1">
          <mxGeometry x="2955.5" y="104.5" width="301" height="662" as="geometry" />
        </mxCell>
        <mxCell id="OIwE_63wMMSFKBlg6qpk-134" value="" style="rounded=0;whiteSpace=wrap;html=1;" vertex="1" parent="1">
          <mxGeometry x="3009" y="238" width="205" height="131" as="geometry" />
        </mxCell>
        <mxCell id="OIwE_63wMMSFKBlg6qpk-135" value="Worker" style="text;strokeColor=none;align=center;fillColor=none;html=1;verticalAlign=middle;whiteSpace=wrap;rounded=0;" vertex="1" parent="1">
          <mxGeometry x="2993" y="134" width="113" height="50" as="geometry" />
        </mxCell>
        <mxCell id="OIwE_63wMMSFKBlg6qpk-138" value="Executor" style="text;strokeColor=none;align=center;fillColor=none;html=1;verticalAlign=middle;whiteSpace=wrap;rounded=0;" vertex="1" parent="1">
          <mxGeometry x="3019.5" y="255" width="75.5" height="32" as="geometry" />
        </mxCell>
        <mxCell id="OIwE_63wMMSFKBlg6qpk-139" value="" style="rounded=0;whiteSpace=wrap;html=1;" vertex="1" parent="1">
          <mxGeometry x="3070" y="285" width="72" height="38" as="geometry" />
        </mxCell>
        <mxCell id="OIwE_63wMMSFKBlg6qpk-140" value="" style="rounded=0;whiteSpace=wrap;html=1;" vertex="1" parent="1">
          <mxGeometry x="3080" y="295" width="72" height="38" as="geometry" />
        </mxCell>
        <mxCell id="OIwE_63wMMSFKBlg6qpk-141" value="Task" style="rounded=0;whiteSpace=wrap;html=1;" vertex="1" parent="1">
          <mxGeometry x="3090" y="305" width="72" height="38" as="geometry" />
        </mxCell>
        <mxCell id="OIwE_63wMMSFKBlg6qpk-142" value="" style="rounded=0;whiteSpace=wrap;html=1;" vertex="1" parent="1">
          <mxGeometry x="3017" y="482" width="205" height="131" as="geometry" />
        </mxCell>
        <mxCell id="OIwE_63wMMSFKBlg6qpk-143" value="Executor" style="text;strokeColor=none;align=center;fillColor=none;html=1;verticalAlign=middle;whiteSpace=wrap;rounded=0;" vertex="1" parent="1">
          <mxGeometry x="3037" y="495.5" width="75.5" height="32" as="geometry" />
        </mxCell>
        <mxCell id="OIwE_63wMMSFKBlg6qpk-146" value="" style="rounded=0;whiteSpace=wrap;html=1;" vertex="1" parent="1">
          <mxGeometry x="3106" y="524" width="65" height="35" as="geometry" />
        </mxCell>
        <mxCell id="OIwE_63wMMSFKBlg6qpk-147" value="" style="rounded=0;whiteSpace=wrap;html=1;" vertex="1" parent="1">
          <mxGeometry x="3116" y="534" width="65" height="35" as="geometry" />
        </mxCell>
        <mxCell id="OIwE_63wMMSFKBlg6qpk-148" value="Task" style="rounded=0;whiteSpace=wrap;html=1;" vertex="1" parent="1">
          <mxGeometry x="3126" y="544" width="65" height="35" as="geometry" />
        </mxCell>
        <mxCell id="OIwE_63wMMSFKBlg6qpk-150" style="edgeStyle=orthogonalEdgeStyle;rounded=0;orthogonalLoop=1;jettySize=auto;html=1;exitX=1;exitY=0.75;exitDx=0;exitDy=0;" edge="1" parent="1" target="OIwE_63wMMSFKBlg6qpk-142">
          <mxGeometry relative="1" as="geometry">
            <mxPoint x="2265" y="598.6899999999996" as="sourcePoint" />
            <mxPoint x="2879.9080000000004" y="597.9960000000001" as="targetPoint" />
            <Array as="points">
              <mxPoint x="2611" y="599" />
              <mxPoint x="2611" y="560" />
            </Array>
          </mxGeometry>
        </mxCell>
        <mxCell id="OIwE_63wMMSFKBlg6qpk-153" style="edgeStyle=orthogonalEdgeStyle;rounded=0;orthogonalLoop=1;jettySize=auto;html=1;entryX=0.004;entryY=0.381;entryDx=0;entryDy=0;entryPerimeter=0;" edge="1" parent="1" source="OIwE_63wMMSFKBlg6qpk-132" target="OIwE_63wMMSFKBlg6qpk-133">
          <mxGeometry relative="1" as="geometry" />
        </mxCell>
      </root>
    </mxGraphModel>
  </diagram>
</mxfile>
